<svg width="20" height="11" viewBox="0 0 20 11" fill="none" xmlns="http://www.w3.org/2000/svg">
<path d="M10.5909 3.66667C9.84091 1.53083 7.82727 0 5.45455 0C2.44091 0 0 2.46125 0 5.5C0 8.53875 2.44091 11 5.45455 11C7.82727 11 9.84091 9.46917 10.5909 7.33333H14.5455V11H18.1818V7.33333H20V3.66667H10.5909ZM5.45455 7.33333C4.45 7.33333 3.63636 6.51292 3.63636 5.5C3.63636 4.48708 4.45 3.66667 5.45455 3.66667C6.45909 3.66667 7.27273 4.48708 7.27273 5.5C7.27273 6.51292 6.45909 7.33333 5.45455 7.33333Z" fill="#FF8858"/>
</svg>
